<?xml version="1.0" encoding="utf-8" standalone="no"?><!DOCTYPE svg PUBLIC "-//W3C//DTD SVG 20010904//EN" "http://www.w3.org/TR/2001/REC-SVG-20010904/DTD/svg10.dtd"><svg xmlns="http://www.w3.org/2000/svg" width="625" height="561" xmlns:xlink="http://www.w3.org/1999/xlink"><source><![CDATA[user->your service: Hi, I swear I'm john@doe.com,\nplease let me in!
your service->NoPass.me: initiate an auth flow for\nuser john@doe.com
NoPass.me-->user: sending one-time auth code with 5min validity
your service->user: So, what's the code\nyou just received?
user->your service: It's 123456
your service->NoPass.me: Is 123456 the valid code\nfor john@doe.com?
NoPass.me->your service: Yeah, let them in!
your service->user: You're alright! Let's go!]]></source><desc></desc><defs><marker viewBox="0 0 5 5" markerWidth="5" markerHeight="5" orient="auto" refX="5" refY="2.5" id="markerArrowBlock"><path d="M 0 0 L 5 2.5 L 0 5 z"></path></marker><marker viewBox="0 0 9.6 16" markerWidth="4" markerHeight="16" orient="auto" refX="9.6" refY="8" id="markerArrowOpen"><path d="M 9.6,8 1.92,16 0,13.7 5.76,8 0,2.286 1.92,0 9.6,8 z"></path></marker></defs><g class="title"></g><g class="actor"><path d="M10,20C51.6,17.7 54.0,22.3 68.1,20.0C66.4,48.5 69.8,52.6 68.1,62.5C55.7,64.8 54.2,60.2 10.0,62.5C11.7,52.3 8.3,30.2 10.0,20.0" stroke="#000000" fill="#ffffff" style="stroke-width: 2;"></path><text x="20" y="44" style="font-size: 16px; font-family: danielbd;"><tspan x="20">user</tspan></text></g><g class="actor"><path d="M10,499.3125C58.8,497.0 44.6,501.6 68.1,499.3C69.8,531.6 66.4,509.5 68.1,541.8C46.6,539.5 46.9,544.1 10.0,541.8C11.7,509.5 8.3,531.6 10.0,499.3" stroke="#000000" fill="#ffffff" style="stroke-width: 2;"></path><text x="20" y="523.3125" style="font-size: 16px; font-family: danielbd;"><tspan x="20">user</tspan></text></g><path d="M39.0,62.5C21.6,372.1 56.5,368.0 39.0,499.3" stroke="#000000" fill="none" style="stroke-width: 2;"></path><g class="actor"><path d="M244.859375,20C264.8,15.0 349.7,25.0 369.7,20.0C368.0,41.2 371.4,44.6 369.7,62.5C343.1,67.5 325.0,57.5 244.9,62.5C243.2,43.0 246.6,48.5 244.9,20.0" stroke="#000000" fill="#ffffff" style="stroke-width: 2;"></path><text x="254.859375" y="44" style="font-size: 16px; font-family: danielbd;"><tspan x="254.859375">your service</tspan></text></g><g class="actor"><path d="M244.859375,499.3125C281.6,504.3 308.0,494.3 369.7,499.3C368.0,517.3 371.4,514.3 369.7,541.8C264.8,546.8 346.9,536.8 244.9,541.8C246.6,510.4 243.2,509.5 244.9,499.3" stroke="#000000" fill="#ffffff" style="stroke-width: 2;"></path><text x="254.859375" y="523.3125" style="font-size: 16px; font-family: danielbd;"><tspan x="254.859375">your service</tspan></text></g><path d="M307.3,62.5C289.8,347.7 324.7,132.4 307.3,499.3" stroke="#000000" fill="none" style="stroke-width: 2;"></path><g class="actor"><path d="M487.5546875,20C551.8,24.3 529.5,15.7 595.1,20.0C596.8,48.6 593.4,26.8 595.1,62.5C569.3,58.2 577.9,66.8 487.6,62.5C489.3,44.1 485.9,37.7 487.6,20.0" stroke="#000000" fill="#ffffff" style="stroke-width: 2;"></path><text x="497.5546875" y="44" style="font-size: 16px; font-family: danielbd;"><tspan x="497.5546875">NoPass.me</tspan></text></g><g class="actor"><path d="M487.5546875,499.3125C519.6,495.0 504.8,503.6 595.1,499.3C593.4,509.5 596.8,506.1 595.1,541.8C569.3,537.5 519.8,546.1 487.6,541.8C489.3,506.1 485.9,509.5 487.6,499.3" stroke="#000000" fill="#ffffff" style="stroke-width: 2;"></path><text x="497.5546875" y="523.3125" style="font-size: 16px; font-family: danielbd;"><tspan x="497.5546875">NoPass.me</tspan></text></g><path d="M541.3,62.5C523.8,343.2 558.8,132.4 541.3,499.3" stroke="#000000" fill="none" style="stroke-width: 2;"></path><g class="signal"><text x="49.046875" y="80.6484375" style="font-size: 16px; font-family: danielbd;"><tspan x="49.046875">Hi, I swear I'm john@doe.com,</tspan><tspan dy="1.2em" x="49.046875">please let me in!</tspan></text><path d="M39.0,124.2C183.5,134.9 82.0,113.5 307.3,124.2" stroke="#000000" fill="none" style="stroke-width: 2; marker-end: url(&quot;#markerArrowBlock&quot;);"></path></g><g class="signal"><text x="318.1640625" y="142.3515625" style="font-size: 16px; font-family: danielbd;"><tspan x="318.1640625">initiate an auth flow for</tspan><tspan dy="1.2em" x="318.1640625">user john@doe.com</tspan></text><path d="M307.3,185.9C476.4,195.3 449.3,176.5 541.3,185.9" stroke="#000000" fill="none" style="stroke-width: 2; marker-end: url(&quot;#markerArrowBlock&quot;);"></path></g><g class="signal"><text x="94.75" y="213.65625" style="font-size: 16px; font-family: danielbd;"><tspan x="94.75">sending one-time auth code with 5min validity</tspan></text><path d="M541.3,228.4C334.2,208.3 460.9,248.5 39.0,228.4" stroke="#000000" fill="none" style="stroke-width: 2; stroke-dasharray: 6, 2; marker-end: url(&quot;#markerArrowBlock&quot;);"></path></g><g class="signal"><text x="88.8125" y="246.5546875" style="font-size: 16px; font-family: danielbd;"><tspan x="88.78125">So, what's the code</tspan><tspan dy="1.2em" x="88.78125">you just received?</tspan></text><path d="M307.3,290.1C207.7,300.8 139.2,279.4 39.0,290.1" stroke="#000000" fill="none" style="stroke-width: 2; marker-end: url(&quot;#markerArrowBlock&quot;);"></path></g><g class="signal"><text x="124.546875" y="317.859375" style="font-size: 16px; font-family: danielbd;"><tspan x="124.546875">It's 123456</tspan></text><path d="M39.0,332.6C167.6,321.9 82.0,343.3 307.3,332.6" stroke="#000000" fill="none" style="stroke-width: 2; marker-end: url(&quot;#markerArrowBlock&quot;);"></path></g><g class="signal"><text x="317.265625" y="350.7578125" style="font-size: 16px; font-family: danielbd;"><tspan x="317.265625">Is 123456 the valid code</tspan><tspan dy="1.2em" x="317.265625">for john@doe.com?</tspan></text><path d="M307.3,394.3C503.9,403.7 344.7,385.0 541.3,394.3" stroke="#000000" fill="none" style="stroke-width: 2; marker-end: url(&quot;#markerArrowBlock&quot;);"></path></g><g class="signal"><text x="350.421875" y="422.0625" style="font-size: 16px; font-family: danielbd;"><tspan x="350.421875">Yeah, let them in!</tspan></text><path d="M541.3,436.8C492.8,427.5 485.1,446.2 307.3,436.8" stroke="#000000" fill="none" style="stroke-width: 2; marker-end: url(&quot;#markerArrowBlock&quot;);"></path></g><g class="signal"><text x="73.0234375" y="464.5625" style="font-size: 16px; font-family: danielbd;"><tspan x="73.0234375">You're alright! Let's go!</tspan></text><path d="M307.3,479.3C242.9,468.6 264.4,490.0 39.0,479.3" stroke="#000000" fill="none" style="stroke-width: 2; marker-end: url(&quot;#markerArrowBlock&quot;);"></path></g></svg>